<?xml version="1.0" encoding="UTF-8"?>
<svg id="Layer_1" data-name="Layer 1" xmlns="http://www.w3.org/2000/svg" xmlns:xlink="http://www.w3.org/1999/xlink" viewBox="0 0 1509.37 360.87">
  <defs>
    <style>
      .cls-1 {
        fill: #0559f9;
      }

      .cls-1, .cls-2, .cls-3, .cls-4, .cls-5, .cls-6 {
        stroke-width: 0px;
      }

      .cls-2 {
        fill: url(#linear-gradient);
      }

      .cls-3 {
        fill: #0939b2;
      }

      .cls-4 {
        fill: #48b5ff;
      }

      .cls-5 {
        fill: url(#linear-gradient-2);
      }

      .cls-6 {
        fill: url(#linear-gradient-3);
      }
    </style>
    <linearGradient id="linear-gradient" x1="249.45" y1="54.65" x2="194.64" y2="259.41" gradientTransform="translate(349.68) rotate(-180) scale(1 -1)" gradientUnits="userSpaceOnUse">
      <stop offset=".18" stop-color="#35d18e"/>
      <stop offset="1" stop-color="#009dff"/>
    </linearGradient>
    <linearGradient id="linear-gradient-2" x1="59.91" y1="172.92" x2="249.98" y2="172.92" gradientTransform="translate(349.68) rotate(-180) scale(1 -1)" gradientUnits="userSpaceOnUse">
      <stop offset="0" stop-color="#1461fc"/>
      <stop offset=".85" stop-color="#1498fc"/>
    </linearGradient>
    <linearGradient id="linear-gradient-3" x1="61.36" y1="267.81" x2="156.1" y2="127.39" gradientTransform="translate(349.68) rotate(-180) scale(1 -1)" gradientUnits="userSpaceOnUse">
      <stop offset=".03" stop-color="#35d1ff"/>
      <stop offset="1" stop-color="#fff"/>
    </linearGradient>
  </defs>
  <path class="cls-2" d="M60.25,288.49c49.33-5.48,98.65-11,147.97-16.52,9.36-1.48,15.82-9.86,16.05-19.14,0-53.27,0-106.55,0-159.82-.24-9.28-6.69-17.66-16.05-19.14-49.32-5.52-98.64-11.04-147.97-16.52-10.46-.5-16.13,9.91-16.05,19.15,0,64.28,0,128.56,0,192.84-.08,9.24,5.59,19.65,16.05,19.15Z"/>
  <path class="cls-1" d="M90.47,308.04c60.13-8.05,120.26-16.15,180.39-24.23,10.02-1.71,17.57-10.26,17.95-20.42,0-60.31,0-120.62,0-180.93-.38-10.17-7.94-18.72-17.95-20.42-60.13-8.08-120.26-16.19-180.39-24.23-11.47-.92-18.05,10.23-17.95,20.44,0,76.46,0,152.92,0,229.37-.1,10.2,6.48,21.36,17.95,20.44Z"/>
  <path class="cls-4" d="M122.71,317.82c61.66-9.16,123.32-18.25,184.97-27.46,12.51-1.29,21.64-13.46,23.02-25.18,0-61.5,0-123.01,0-184.51-1.38-11.72-10.51-23.9-23.02-25.19-61.65-9.21-123.32-18.3-184.97-27.46-13.16-.26-24.19,11.83-23.02,25.09,0,79.87,0,159.75,0,239.62-1.17,13.25,9.86,25.35,23.02,25.09Z"/>
  <path class="cls-5" d="M288.81,82.45c1.27,59.62,1.27,121.31,0,180.93-.21,10.05-8.05,18.89-17.95,20.42-55.18,8.54-112.02,15.11-168.04,22.58-2.08-4.1-3.16-8.92-3.13-13.67.5-79.86.5-159.76,0-239.62-.03-4.75,1.05-9.57,3.13-13.67,56.02,7.47,112.86,14.05,168.04,22.59,9.9,1.53,17.74,10.38,17.95,20.42Z"/>
  <path class="cls-6" d="M191.61,93.78c0,31.81,0,63.63,0,95.44.1,11.89,9.56,21.98,21.43,21.73,11.74-.24,21.26-10.19,21.43-22.07,0-29.82,0-59.63,0-89.45,15.47,1.82,30.94,3.61,46.41,5.38,0,26.69,0,53.38,0,80.07,0,36.79-31.33,68.24-67.84,69.75h0c-38.54,1.61-67.87-31.54-67.84-68.92,0-32.41,0-64.83,0-97.24,15.47,1.8,30.94,3.57,46.41,5.31Z"/>
  <g>
    <path class="cls-3" d="M572.61,207.88c0,44.24-33.91,72.25-86.7,72.25s-86.7-28.02-86.7-72.25V74.29h48.95v124.75c0,31.26,17.69,43.94,37.75,43.94s37.75-12.68,37.75-43.94v-124.75h48.96v133.59Z"/>
    <path class="cls-3" d="M685.85,276.6v-100.27c0-3.54-1.77-8.55-6.49-8.55-5.31,0-11.8,6.49-25.07,17.99l-15.33,13.57v77.27h-46.6v-139.49l43.65-1.18,2.65,25.36,10.03-8.55c10.91-9.14,21.82-16.81,38.34-16.81,27.13,0,45.42,14.45,45.42,41.29v99.38h-46.6Z"/>
    <path class="cls-3" d="M897.89,276.3l-38.63,3.83c-10.91,0-22.12-5.01-24.48-16.52l-.59-3.24h-.29c-13.57,12.98-28.02,19.76-43.65,19.76-25.07,0-39.52-19.76-39.52-39.22,0-24.48,25.66-49.54,80.8-51.31v-6.49c0-12.09-4.72-17.69-14.45-17.69-11.21,0-26.54,5.6-41.29,12.98l-12.39-25.66c15.33-7.96,36.27-16.81,59.57-16.81,29.49,0,55.15,12.68,55.15,49.54v36.27c0,21.23.59,28.61,10.03,28.61l9.73-1.18v27.13ZM831.53,213.78c-21.53.59-37.16,10.03-37.16,23.3,0,6.78,4.72,12.68,12.39,12.68,7.08,0,15.63-3.54,24.77-12.68v-23.3Z"/>
    <path class="cls-3" d="M990.78,280.14c-10.03,0-20.64-2.36-31.26-6.49v69.3h-46.6v-205.84l43.94-1.18,1.77,20.64c10.03-12.98,24.48-20.64,38.34-20.64,39.22,0,58.1,33.03,58.1,67.83,0,37.16-22.41,76.38-64.29,76.38ZM982.82,165.42c-14.16,0-23.3,14.16-23.3,39.52v38.63c6.49,4.42,12.68,6.19,18.28,6.19,19.46,0,29.2-23.3,29.2-45.42,0-20.05-7.96-38.93-24.18-38.93Z"/>
    <path class="cls-3" d="M1146.49,280.14c-51.02,0-76.68-35.98-76.68-71.96s25.66-72.25,76.68-72.25,76.68,36.27,76.68,72.25-25.66,71.96-76.68,71.96ZM1146.49,165.42c-17.1,0-30.08,19.46-30.08,43.35s11.5,40.99,30.08,40.99,30.08-17.99,30.08-40.99-12.98-43.35-30.08-43.35Z"/>
    <path class="cls-3" d="M1352.62,174.26c-2.65-.59-10.32-1.18-12.68-1.18-11.8,0-21.23,2.36-35.68,15.04l-12.68,11.21v77.27h-46.6v-139.49l43.65-1.18,2.65,26.25,10.03-8.55c10.91-9.14,20.64-17.69,37.16-17.69,2.95,0,11.21.88,14.16,1.77v36.57Z"/>
    <path class="cls-3" d="M1467.93,276.6l-35.98,3.54c-33.62,0-51.31-6.78-51.31-37.75v-74.32h-21.53v-29.79l21.53-2.36,5.01-40.7h41.58v43.06h36.86v29.79h-36.86v58.69c0,20.05,8.26,25.66,23.59,25.66l17.1-2.06v26.25Z"/>
  </g>
</svg>